<?xml version="1.0" standalone="no"?>
<!DOCTYPE svg PUBLIC "-//W3C//DTD SVG 20010904//EN"
 "http://www.w3.org/TR/2001/REC-SVG-20010904/DTD/svg10.dtd">
<svg version="1.0" xmlns="http://www.w3.org/2000/svg"
 width="470.000000pt" height="470.000000pt" viewBox="0 0 470.000000 470.000000"
 preserveAspectRatio="xMidYMid meet">
<metadata>
Created by potrace 1.11, written by Peter Selinger 2001-2013
</metadata>
<g transform="translate(0.000000,470.000000) scale(0.100000,-0.100000)"
fill="#000000" stroke="none">
<path d="M880 4667 c-42 -25 -61 -44 -82 -86 l-28 -53 0 -2160 c0 -1673 3
-2170 12 -2202 14 -45 96 -136 123 -136 9 0 14 -4 11 -9 -4 -5 8 -7 26 -5 21
3 28 2 20 -4 -8 -6 -1 -8 22 -8 19 1 32 4 29 9 -2 4 0 7 6 7 5 0 12 -6 15 -12
5 -10 7 -10 12 -1 4 9 11 10 25 3 11 -6 19 -7 19 -1 0 12 33 9 42 -4 5 -6 8
-6 8 1 0 7 15 9 45 4 30 -5 45 -3 45 4 0 6 5 4 10 -4 5 -8 10 -10 10 -4 0 14
32 13 42 -1 5 -6 8 -6 8 1 0 7 15 9 45 4 30 -5 45 -3 45 4 0 6 5 4 10 -4 7
-11 10 -11 10 -2 0 10 5 10 20 2 14 -8 20 -8 20 0 0 8 6 8 20 0 11 -6 20 -7
20 -2 0 11 53 9 62 -3 5 -6 8 -4 8 5 0 13 1 13 10 0 8 -12 10 -12 10 -1 0 11
3 11 15 1 10 -8 15 -9 15 -1 0 7 8 8 26 1 16 -7 23 -7 19 0 -3 6 -2 10 4 10 5
0 12 -6 15 -12 5 -10 7 -10 12 -1 4 9 11 10 25 3 11 -6 19 -7 19 -1 0 12 33 9
42 -4 5 -6 8 -6 8 1 0 7 15 9 45 4 27 -4 45 -3 45 3 0 5 7 4 15 -3 10 -9 15
-9 15 -1 0 13 22 10 32 -4 5 -6 8 -6 8 1 0 7 15 9 45 4 30 -5 45 -3 45 4 0 6
5 4 10 -4 7 -11 10 -11 10 -2 0 10 5 10 20 2 14 -8 20 -8 20 0 0 8 6 8 20 0
11 -6 20 -7 20 -2 0 11 53 9 62 -3 5 -6 8 -4 8 5 0 13 1 13 10 0 8 -12 10 -12
10 -1 0 11 3 11 15 1 10 -8 15 -9 15 -1 0 7 8 8 26 1 16 -7 23 -7 19 0 -3 6
-2 10 4 10 5 0 12 -6 15 -12 5 -10 7 -10 12 -1 4 9 11 10 25 3 11 -6 19 -7 19
-1 0 12 33 9 42 -4 5 -6 8 -6 8 1 0 7 15 9 45 4 27 -4 45 -3 45 3 0 5 7 4 15
-3 10 -9 15 -9 15 -1 0 13 22 10 32 -4 5 -6 8 -6 8 1 0 7 15 9 45 4 30 -5 45
-3 45 4 0 6 5 4 10 -4 7 -11 10 -11 10 -2 0 10 5 10 20 2 14 -8 20 -8 20 0 0
8 6 8 20 0 11 -6 20 -7 20 -2 0 11 53 9 62 -3 5 -6 8 -4 8 5 0 13 1 13 10 0 8
-12 10 -12 10 -1 0 11 3 11 15 1 10 -8 15 -9 15 -1 0 7 8 8 26 1 16 -7 23 -7
19 0 -3 6 -2 10 4 10 5 0 12 -6 15 -12 5 -10 7 -10 12 -1 4 9 11 10 25 3 11
-6 19 -7 19 -1 0 12 33 9 42 -4 5 -6 8 -6 8 1 0 7 15 9 45 4 27 -4 45 -3 45 3
0 5 7 4 15 -3 10 -9 15 -9 15 -1 0 13 22 10 32 -4 5 -6 8 -6 8 1 0 7 15 9 45
4 30 -5 45 -3 45 4 0 6 5 4 10 -4 7 -11 10 -11 10 -2 0 10 5 10 20 2 14 -8 20
-8 20 0 0 8 6 8 20 0 11 -6 20 -7 20 -2 0 11 53 9 62 -3 5 -6 8 -4 8 5 0 13 1
13 10 0 7 -11 10 -11 10 -2 0 10 5 10 20 2 15 -8 20 -8 20 2 0 9 3 9 10 -2 9
-13 10 -13 10 0 0 13 1 13 10 0 5 -8 10 -10 10 -3 0 12 17 12 38 0 7 -5 12 -3
12 3 0 8 6 8 20 0 14 -8 20 -8 20 0 0 8 6 8 20 0 14 -7 20 -7 20 0 0 5 5 10
11 10 5 0 8 -4 4 -10 -3 -5 7 -3 22 5 18 9 31 11 37 5 6 -6 15 -10 20 -10 6 0
4 5 -4 11 -13 9 -13 11 0 16 33 13 98 90 109 128 7 28 11 711 12 2195 l2 2155
-20 47 c-26 58 -82 112 -132 127 -29 8 -414 11 -1438 11 l-1399 0 -54 -33z"/>
</g>
</svg>
